<?xml version="1.0" standalone="no"?><!DOCTYPE svg PUBLIC "-//W3C//DTD SVG 1.1//EN" "http://www.w3.org/Graphics/SVG/1.1/DTD/svg11.dtd"><svg t="1768037628148" class="icon" viewBox="0 0 1024 1024" version="1.1" xmlns="http://www.w3.org/2000/svg" p-id="6681" xmlns:xlink="http://www.w3.org/1999/xlink" width="200" height="200"><path d="M981.333333 904.746667l-76.16-250.666667a85.333333 85.333333 0 0 0-79.36-58.453333h-66.773333a4.053333 4.053333 0 0 1-4.266667 4.053333 524.373333 524.373333 0 0 0 91.946667-254.72 334.293333 334.293333 0 1 0-668.373333 0c-4.266667 87.68 33.28 179.626667 83.413333 254.72v-4.053333H199.04a81.493333 81.493333 0 0 0-79.36 58.453333L44.586667 904.746667a51.626667 51.626667 0 0 0-4.266667 24.96 83.84 83.84 0 0 0 83.626667 83.626666h776.96a52.053333 52.053333 0 0 0 25.173333-4.266666A85.333333 85.333333 0 0 0 981.333333 904.746667zM512 73.386667a271.146667 271.146667 0 0 1 272 271.573333c-4.053333 87.68-50.133333 187.946667-121.173333 275.626667-58.453333 71.04-129.493333 121.173333-149.333334 121.173333-24.96 0-96-50.133333-154.453333-121.173333-76.373333-87.253333-122.24-187.946667-118.186667-275.626667A271.146667 271.146667 0 0 1 512 73.386667z m397.44 877.226666H123.946667a19.626667 19.626667 0 0 1-21.333334-21.333333v-4.053333l75.733334-250.24a27.52 27.52 0 0 1 21.333333-16.853334h108.8v-4.053333c75.093333 87.68 162.773333 150.4 208.853333 150.4s129.493333-58.453333 200.533334-149.333333v4.053333h112.853333a21.333333 21.333333 0 0 1 21.333333 16.853333l75.306667 250.666667a33.92 33.92 0 0 1-17.92 23.893333z" p-id="6682" fill="#7D33FF"></path><path d="M401.706667 540.16v-1.706667a22.826667 22.826667 0 0 1 27.306666-21.333333l16.426667 2.986667a357.76 357.76 0 0 0 53.76 4.266666 96 96 0 0 0 52.906667-12.373333 43.733333 43.733333 0 0 0 16.426666-38.826667 62.506667 62.506667 0 0 0-5.546666-28.586666 41.173333 41.173333 0 0 0-20.266667-17.066667 251.306667 251.306667 0 0 0-45.013333-13.866667 234.666667 234.666667 0 0 1-55.893334-19.2 65.493333 65.493333 0 0 1-28.16-27.733333A105.173333 105.173333 0 0 1 405.333333 320a85.333333 85.333333 0 0 1 28.586667-70.4 137.813333 137.813333 0 0 1 86.4-22.826667 291.2 291.2 0 0 1 47.786667 3.626667c7.04 1.066667 13.226667 2.133333 18.773333 3.413333a22.826667 22.826667 0 0 1 17.706667 22.186667 22.826667 22.826667 0 0 1-26.88 22.613333l-11.306667-2.133333a285.013333 285.013333 0 0 0-45.013333-3.84 91.52 91.52 0 0 0-48.64 9.6 41.173333 41.173333 0 0 0-14.293334 37.76 50.346667 50.346667 0 0 0 4.266667 23.253333 36.053333 36.053333 0 0 0 17.706667 14.72 248.533333 248.533333 0 0 0 42.666666 13.013334 231.253333 231.253333 0 0 1 60.586667 21.333333 69.973333 69.973333 0 0 1 30.506667 30.933333 124.8 124.8 0 0 1 8.96 52.053334 86.826667 86.826667 0 0 1-30.293334 72.533333 145.92 145.92 0 0 1-91.733333 24.106667 408.533333 408.533333 0 0 1-56.106667-3.84c-9.386667-1.28-17.493333-2.773333-24.746666-4.266667a22.4 22.4 0 0 1-18.56-23.68z" p-id="6683" fill="#7D33FF"></path></svg>