<?xml version="1.0" standalone="no"?><!DOCTYPE svg PUBLIC "-//W3C//DTD SVG 1.1//EN" "http://www.w3.org/Graphics/SVG/1.1/DTD/svg11.dtd"><svg t="1768101560867" class="icon" viewBox="0 0 1024 1024" version="1.1" xmlns="http://www.w3.org/2000/svg" p-id="20665" xmlns:xlink="http://www.w3.org/1999/xlink" width="200" height="200"><path d="M899.195529 140.341329C775.587304 103.133915 663.761426 80.721463 512.791016 64.021106 438.70774 67.838038 369.361349 76.904531 305.194934 91.685165c-64.165392 14.784728-125.033691 31.015388-182.124967 48.656163 0 475.600999-45.584198 594.033341 330.265936 802.369274 45.013193 24.946159 72.248488 25.816992 118.89897 0.475837C948.821787 738.578412 900.135948 639.795595 899.195529 140.341329zM563.745525 884.027062c-39.974433 21.736047-63.163575 21.829168-102.390995 0C137.28062 703.609992 176.386266 602.098018 176.386266 191.393052c98.138134-30.53034 209.007221-59.640332 335.936075-65.836451 130.682341 13.82896 226.929406 34.346249 333.560982 65.836451C846.353021 622.620423 888.962467 707.292871 563.745525 884.027062z" fill="#7D33FF" p-id="20666"></path><path d="M608.715739 488.986867c-17.007349-11.458983-41.139979-24.007787-72.398914-37.645388-30.956036-13.31833-52.560076-24.007787-64.813145-32.06837-12.260232-8.05342-21.303188-16.73208-27.120684-26.02677-5.824659-9.29469-8.733918-21.066805-8.733918-35.32146 0-20.137643 7.275707-36.019355 21.834284-47.637973 14.551414-11.618619 34.088376-17.428951 58.608839-17.428951 16.84976 0 31.100322 2.171456 42.74964 6.506181 11.642155 4.342912 22.064528 11.851932 31.257911 22.540366 9.193383 10.689457 17.158798 25.329898 23.902386 43.920302l44.129056 0L658.131195 271.015484c-28.500101-5.881964-52.173267-9.831926-71.019497-11.851932-18.84623-2.01182-38.383192-3.0208-58.607816-3.0208-34.633798 0-64.814168 4.959965-90.556459 14.872732-25.741267 9.91993-45.435819 24.24724-59.068304 42.990117-13.639648 18.750039-20.455891 40.825824-20.455891 66.228377 0 20.761859 4.826935 38.73521 14.479783 53.912887 9.653871 15.183817 22.904663 28.350698 39.761586 39.503712 16.84976 11.154038 39.223327 22.620184 67.112514 34.392298 32.478715 13.942547 55.161321 25.024953 68.031443 33.230845 12.871145 8.212032 22.36538 17.275455 28.500101 27.187199 6.126534 9.91993 9.193383 22.773679 9.193383 38.575574 0 13.942547-2.455935 25.561166-7.355525 34.856879-4.90573 9.295714-11.490705 16.658402-19.765159 22.075785-8.274454 5.425569-17.698081 9.295714-28.269857 11.618619-10.5728 2.323928-21.375843 3.485381-32.408107 3.485381-28.499078 0-50.872644-6.426363-67.11149-19.287275-16.246009-12.854772-28.500101-33.534767-36.774555-62.046125l-45.047985 0 0 97.135294c22.983457 6.202259 46.577828 11.234879 70.790276 15.105023 24.204262 3.870144 49.185212 5.809309 74.92648 5.809309 24.514323 0 47.116087-2.323928 67.802222-6.971785 20.685111-4.647857 38.533618-12.235672 53.55166-22.773679 15.011902-10.528797 26.66122-24.166399 34.935674-40.898479s12.411681-37.33328 12.411681-61.812811c0-21.066805-4.826935-39.192627-14.479783-54.377468C639.055744 513.779529 625.725134 500.454036 608.715739 488.986867z" fill="#7D33FF" p-id="20667"></path></svg>