<?xml version="1.0" standalone="no"?><!DOCTYPE svg PUBLIC "-//W3C//DTD SVG 1.1//EN" "http://www.w3.org/Graphics/SVG/1.1/DTD/svg11.dtd"><svg t="1768104380696" class="icon" viewBox="0 0 1024 1024" version="1.1" xmlns="http://www.w3.org/2000/svg" p-id="41203" xmlns:xlink="http://www.w3.org/1999/xlink" width="200" height="200"><path d="M512.001709 0c-282.316368 0-512.000662 229.682341-512.000662 511.998953 0 282.318321 229.684295 512.000906 512.000662 512.000906 282.31295 0 511.997488-229.682586 511.997488-512.000906C1023.999197 229.682341 794.314659 0 512.001709 0L512.001709 0zM512.001709 1015.536115c-277.649864 0-503.53704-225.883758-503.53704-503.535331 0-277.653404 225.887176-503.53704 503.53704-503.53704 277.651817 0 503.535087 225.883636 503.535087 503.53704C1015.536796 789.652357 789.653526 1015.536115 512.001709 1015.536115L512.001709 1015.536115z" fill="#7D33FF" p-id="41204" data-spm-anchor-id="a313x.search_index.0.i36.34793a81pH00PQ" class="selected"></path><path d="M383.940447 629.417272l118.805892 0 0-106.735337-127.771467 0C375.489521 562.995284 378.946063 598.12919 383.940447 629.417272L383.940447 629.417272z" fill="#7D33FF" p-id="41205" data-spm-anchor-id="a313x.search_index.0.i37.34793a81pH00PQ" class="selected"></path><path d="M374.848163 501.343193l127.898176 0 0-106.737046-119.016097 0C378.735858 425.87958 375.389667 461.189268 374.848163 501.343193L374.848163 501.343193z" fill="#7D33FF" p-id="41206" data-spm-anchor-id="a313x.search_index.0.i43.34793a81pH00PQ" class="selected"></path><path d="M387.246599 373.252878l115.49974 0 0-148.954447c-22.653805 0.72644-44.523431 4.345825-65.572257 9.996214C421.128675 261.1318 400.353531 306.213093 387.246599 373.252878L387.246599 373.252878z" fill="#7D33FF" p-id="41207" data-spm-anchor-id="a313x.search_index.0.i39.34793a81pH00PQ" class="selected"></path><path d="M437.875254 789.933119c20.834958 5.532714 42.478021 9.07434 64.871085 9.802611l0-148.967143-115.062973 0C400.913345 718.303002 421.804456 763.596331 437.875254 789.933119L437.875254 789.933119z" fill="#7D33FF" p-id="41208" data-spm-anchor-id="a313x.search_index.0.i50.34793a81pH00PQ" class="selected"></path><path d="M362.346456 394.606147l-113.248031 0c-14.720945 32.757198-23.251706 68.798697-24.670407 106.737046l129.077619 0C354.032981 461.212827 357.357199 425.87958 362.346456 394.606147L362.346456 394.606147z" fill="#7D33FF" p-id="41209" data-spm-anchor-id="a313x.search_index.0.i42.34793a81pH00PQ" class="selected"></path><path d="M353.605246 522.681935l-129.338361 0c1.395019 38.094111 10.864256 73.873037 25.645016 106.735337l112.684555 0C357.601828 598.100138 354.114524 562.995284 353.605246 522.681935L353.605246 522.681935z" fill="#7D33FF" p-id="41210" data-spm-anchor-id="a313x.search_index.0.i48.34793a81pH00PQ" class="selected"></path><path d="M260.094761 650.768587c33.081538 59.778922 86.59032 106.657456 151.452616 130.798688-15.288084-27.139523-33.552486-69.806021-45.44555-130.798688L260.094761 650.768587 260.094761 650.768587z" fill="#7D33FF" p-id="41211" data-spm-anchor-id="a313x.search_index.0.i49.34793a81pH00PQ" class="selected"></path><path d="M410.940444 242.696988c-64.623038 24.219113-118.110335 70.943716-151.148173 130.55589l106.135483 0C377.742938 312.872516 395.741227 270.155236 410.940444 242.696988L410.940444 242.696988z" fill="#7D33FF" p-id="41212" data-spm-anchor-id="a313x.search_index.0.i38.34793a81pH00PQ" class="selected"></path><path d="M615.773423 780.668716c63.465323-24.512692 115.561263-70.996206 147.992411-129.900129l-102.990709 0C649.00169 711.127222 630.974349 753.487567 615.773423 780.668716L615.773423 780.668716z" fill="#7D33FF" p-id="41213" data-spm-anchor-id="a313x.search_index.0.i52.34793a81pH00PQ" class="selected"></path><path d="M664.249735 629.417272l109.731919 0c14.711668-32.873164 24.106686-68.681143 25.519528-106.735337l-126.256819 0C672.737039 562.995284 669.249734 598.100138 664.249735 629.417272L664.249735 629.417272z" fill="#7D33FF" p-id="41214" data-spm-anchor-id="a313x.search_index.0.i46.34793a81pH00PQ" class="selected"></path><path d="M763.919887 373.252878c-32.512691-58.648429-84.369373-105.11937-147.557597-129.675519 15.101316 27.476315 32.842281 69.934683 44.534174 129.675519L763.919887 373.252878 763.919887 373.252878z" fill="#7D33FF" p-id="41215" data-spm-anchor-id="a313x.search_index.0.i41.34793a81pH00PQ" class="selected"></path><path d="M524.097899 650.768587l0 148.572245c22.441891-0.994507 44.313226-4.112304 65.166495-9.898558 16.030759-26.411251 36.768061-71.536001 49.916497-138.673687L524.097899 650.768587 524.097899 650.768587z" fill="#7D33FF" p-id="41216" data-spm-anchor-id="a313x.search_index.0.i51.34793a81pH00PQ" class="selected"></path><path d="M664.501688 394.606147c4.989013 31.262447 8.309569 66.60668 8.840331 106.737046l126.393049 0c-1.480224-37.96374-10.329833-73.914663-25.077877-106.737046L664.501688 394.606147 664.501688 394.606147z" fill="#7D33FF" p-id="41217" data-spm-anchor-id="a313x.search_index.0.i45.34793a81pH00PQ" class="selected"></path><path d="M589.943837 234.762175c-21.083493-5.90393-43.121332-9.499999-65.845938-10.496459l0 148.987162 115.512435 0C626.584945 306.584553 605.956286 261.658778 589.943837 234.762175L589.943837 234.762175z" fill="#7D33FF" p-id="41218" data-spm-anchor-id="a313x.search_index.0.i40.34793a81pH00PQ" class="selected"></path><path d="M643.119367 394.606147 524.097899 394.606147l0 106.737046 127.896467 0C651.454327 461.189268 648.108624 425.87958 643.119367 394.606147L643.119367 394.606147z" fill="#7D33FF" p-id="41219" data-spm-anchor-id="a313x.search_index.0.i44.34793a81pH00PQ" class="selected"></path><path d="M651.869366 522.681935 524.097899 522.681935l0 106.735337 118.811263 0C647.893048 598.12919 651.354961 562.995284 651.869366 522.681935L651.869366 522.681935z" fill="#7D33FF" p-id="41220" data-spm-anchor-id="a313x.search_index.0.i47.34793a81pH00PQ" class="selected"></path></svg>